<svg version="1.1" id="identicon" xmlns="http://www.w3.org/2000/svg" xmlns:xlink="http://www.w3.org/1999/xlink" viewBox="0 0 100 100" enable-background="new 0 0 100 100" xml:space="preserve"><circle cx="50" cy="50" r="48" fill="FireBrick" stroke="FireBrick" stroke-width="2.5" /><circle cx="50" cy="50" r="14.306434613073758" fill="DarkSlateGrey" /><circle cx="50" cy="50" r="7.405035575266413" fill="FireBrick" /><path d="M 50,50 Q 57.53540306937558,36.23693364424122 71.21057150772732,38.64852973277441 z M 50,50 Q 65.63144466047032,51.36463649285379 71.21057150772732,38.64852973277441 z" fill="LightGoldenRodYellow" stroke="LightGoldenRodYellow" stroke-width="1"/><path d="M 50,50 Q 36.11078375033564,37.323657471153616 33.005492807992596,12.09479991112078 z M 50,50 Q 49.77573042874204,31.197082909878375 33.005492807992596,12.09479991112078 z" fill="Salmon" stroke="Salmon" stroke-width="1"/><path d="M 50,50 Q 84.99256695408215,33.639442892390306 74.68791542737165,52.81332760193289 z M 50,50 Q 80.41444257927115,73.81405579693427 74.68791542737165,52.81332760193289 z" fill="ForestGreen" stroke="ForestGreen" stroke-width="1"/><path d="M 50,50 Q 40.04814008661701,43.86231042738872 37.52772102767776,16.818225690015147 z M 50,50 Q 53.44505505173847,38.826712895668 37.52772102767776,16.818225690015147 z" fill="CornflowerBlue" stroke="CornflowerBlue" stroke-width="1"/><path d="M 50,50 Q 35.30699958126676,37.804887754473874 45.70634588365046,17.300121124528644 z M 50,50 Q 61.046667612006026,34.42514338249839 45.70634588365046,17.300121124528644 z" fill="Azure" stroke="Azure" stroke-width="1"/><path d="M 50,50 Q 71.87332584471434,27.86772795431228 72.8999831860217,41.29066627159801 z M 50,50 Q 81.05263379045863,52.00344305859829 72.8999831860217,41.29066627159801 z" fill="Green" stroke="Green" stroke-width="1"/><circle cx="50" cy="50" r="6" fill="FireBrick" /></svg>
