<svg version="1.1" id="identicon" xmlns="http://www.w3.org/2000/svg" xmlns:xlink="http://www.w3.org/1999/xlink" viewBox="0 0 100 100" enable-background="new 0 0 100 100" xml:space="preserve"><circle cx="50" cy="50" r="48" fill="DimGrey" stroke="DimGrey" stroke-width="2.5" /><circle cx="50" cy="50" r="7.7298815998706925" fill="DarkGreen" /><circle cx="50" cy="50" r="6.003956802562628" fill="DimGrey" /><path d="M 50,50 Q 45.306371952448494,49.07931928042532 18.41257815232289,21.088952406701793 z M 50,50 Q 48.66844694335286,45.406007869674525 18.41257815232289,21.088952406701793 z" fill="Aquamarine" stroke="Aquamarine" stroke-width="1"/><path d="M 50,50 Q 64.5990487736888,92.6224661459022 46.13837912464001,84.23684804579977 z M 50,50 Q 26.273630670410235,88.2996898667734 46.13837912464001,84.23684804579977 z" fill="FloralWhite" stroke="FloralWhite" stroke-width="1"/><path d="M 50,50 Q 68.43386989292449,47.78110316471564 71.67175430499931,62.69633379389062 z M 50,50 Q 57.077925064409385,67.16490719979309 71.67175430499931,62.69633379389062 z" fill="Green" stroke="Green" stroke-width="1"/><path d="M 50,50 Q 48.81730945210342,42.46986774746477 58.1559813181045,19.310850119377452 z M 50,50 Q 54.76504057805403,44.0505431372054 58.1559813181045,19.310850119377452 z" fill="HotPink" stroke="HotPink" stroke-width="1"/><path d="M 50,50 Q 47.24286598076209,60.15381675579006 24.48981960368367,70.06946719073659 z M 50,50 Q 39.48249642559482,50.28965716386159 24.48981960368367,70.06946719073659 z" fill="LightYellow" stroke="LightYellow" stroke-width="1"/><circle cx="50" cy="50" r="6" fill="DimGrey" /></svg>
